<?xml version="1.0" encoding="UTF-8" standalone="no"?>
<svg
   width="22.928"
   height="26"
   fill="none"
   viewBox="0 0 22.928 26"
   version="1.1"
   id="svg3"
   sodipodi:docname="geopozo-logo.svg"
   inkscape:version="1.4.2 (ebf0e940d0, 2025-05-08)"
   xmlns:inkscape="http://www.inkscape.org/namespaces/inkscape"
   xmlns:sodipodi="http://sodipodi.sourceforge.net/DTD/sodipodi-0.dtd"
   xmlns="http://www.w3.org/2000/svg"
   xmlns:svg="http://www.w3.org/2000/svg">
  <defs
     id="defs3" />
  <sodipodi:namedview
     id="namedview3"
     pagecolor="#ffffff"
     bordercolor="#111111"
     borderopacity="1"
     inkscape:showpageshadow="0"
     inkscape:pageopacity="0"
     inkscape:pagecheckerboard="1"
     inkscape:deskcolor="#d1d1d1"
     inkscape:zoom="24.5"
     inkscape:cx="24.367347"
     inkscape:cy="22"
     inkscape:window-width="2556"
     inkscape:window-height="1527"
     inkscape:window-x="0"
     inkscape:window-y="28"
     inkscape:window-maximized="1"
     inkscape:current-layer="svg3" />
  <path
     fill="#fff"
     d="M2.042.07a2 2 0 0 0-.256.114C1.267.526.892 1.288.791 2.211.6 4.001 1.264 7.18 2.21 8.971c.108.206.256.472.332.59.15.246.39.565.41.55.007-.008.033-.179.06-.379.121-.946.584-2.28 1.136-3.273.234-.42.67-1.074.956-1.429.227-.279.753-.808 1.003-1.002a1 1 0 0 0 .17-.158c0-.042-.502-.91-.791-1.363C4.791 1.423 4.146.743 3.373.293c-.49-.29-.94-.365-1.33-.224M20.129.04c-.2.045-.73.338-1.048.578-.752.558-1.518 1.554-2.293 2.98l-.138.26.111.098c.454.394.631.568.88.86a10.1 10.1 0 0 1 1.92 3.45c.223.69.26.835.404 1.72.016.107.02.107.082.051.184-.164.762-1.192 1.018-1.803.483-1.167.855-2.576 1.035-3.937.07-.525.096-1.705.05-2.109-.109-.917-.477-1.662-.983-1.98a1.4 1.4 0 0 0-1.038-.169"
     id="path1"
     style="fill:#000000;fill-opacity:1" />
  <path
     fill="#fff"
     d="M11.353.913c-.207.056-.348.256-.492.707-.125.38-.217.49-.52.604-.128.05-.331.138-.45.194-.226.115-.624.391-.624.437 0 .013-.05.03-.105.03-.148.006-.693.184-1.127.37-.759.326-1.203.632-1.843 1.266-.654.65-1.088 1.255-1.56 2.168-.464.89-.783 1.88-1.069 3.305l-.121.612-.3.226c-.387.296-.896.786-1.1 1.061-.194.263-.355.585-.384.78-.06.403.292.834.686.834.06 0 .358-.06.667-.132 2.678-.627 6.542-.969 9.7-.857 2.572.092 4.655.338 6.84.811.48.102.94.188 1.022.188a.73.73 0 0 0 .512-.253c.444-.5.026-1.357-1.117-2.29a9 9 0 0 0-.4-.32c-.037-.015-.116-.32-.25-.939-.22-1.022-.497-1.905-.796-2.576-.828-1.85-2-3.16-3.423-3.837-.388-.184-1.173-.45-1.285-.434-.043.007-.128-.046-.23-.135a2.8 2.8 0 0 0-.811-.48c-.513-.19-.565-.242-.713-.7-.105-.32-.207-.492-.339-.577a.58.58 0 0 0-.368-.063m.592 2.49c.263.057.64.227.798.362.161.135.23.302.3.713.098.568.236 2.376.23 2.95 0 .178-.004.175-.083-.164a8 8 0 0 0-.227-.772 37 37 0 0 1-.361-1.147c-.256-.857-.302-.969-.447-1.077-.168-.125-.306-.155-.69-.155-.315 0-.368.007-.526.09-.226.114-.276.2-.509.926l-.358 1.117a26 26 0 0 0-.283.952 3 3 0 0 1-.128.437c-.046.053.056-1.79.132-2.39.118-.935.22-1.26.437-1.447.42-.36 1.114-.522 1.715-.394M8.643 4.87c-.017.095-.046.496-.066.884a94 94 0 0 1-.186 3.076c-.05.654-.08 1.2-.07 1.213.014.01.185-.004.379-.03.808-.12 1.13-.138 2.67-.13 1.584.002 2.35.04 2.902.137.177.033.325.05.332.04.013-.024-.017-.503-.095-1.647a48 48 0 0 1-.083-1.873c-.023-.972-.056-1.472-.118-1.74-.04-.175.05-.004.184.36.151.414.309 1.003.542 2.034.178.792.293 1.535.365 2.37.03.334.062.617.072.627.013.01.171.046.352.08.755.133 1.774.47 2.208.725.377.22 1.268.805 1.251.821a3 3 0 0 1-.37-.089c-1.696-.46-2.997-.752-3.884-.88-.871-.125-2.543-.233-3.621-.233-1.584 0-3.542.167-4.616.394-.424.092-.772.177-2.494.624-.361.092-.66.164-.667.154-.023-.02 1.012-.673 1.482-.933.44-.246 1.242-.483 2.03-.607.24-.037.253-.043.286-.138.017-.056.046-.25.066-.43a6 6 0 0 1 .098-.625c.033-.164.086-.496.115-.74.063-.528.092-.68.365-1.79.194-.792.302-1.16.463-1.577l.09-.227c.038-.112.052-.036.019.148"
     id="path2"
     style="fill:#000000;fill-opacity:1" />
  <path
     d="M10.845 13.268c-1.65.02-3.811.178-5.8.42-.836.103-2.296.305-2.3.322 0 .003-.022.059-.045.12-.398 1.016-.626 2.048-.629 2.837 0 .172-.007.31-.02.338l-.001.002-.002.002h-.002c-.013-.01-.362-.027-.78-.037a12 12 0 0 1-.814-.041c-.102-.027-.332.076-.394.181a.35.35 0 0 0 .056.451c.075.076.141.112.207.112.26 0 1.63.11 2.08.166.98.12 2.807.48 3.03.594.273.138.254.402-.032.55-.11.056-.184.048-.627-.093-.73-.23-1.146-.322-1.902-.43a10 10 0 0 0-.746-.092c-.017.016.093.62.158.87.053.2.045.241-.033.241-.115 0-1.15.248-1.59.38-.402.121-.492.16-.57.25-.08.088-.091.12-.074.232.033.2.109.322.24.375.132.056.197.046.615-.092.368-.122 1.698-.43 2.303-.535.63-.108 1.53-.19 1.637-.15a.3.3 0 0 1 .185.275c0 .108-.156.285-.252.285-.37 0-1.916.161-1.916.201 0 .05.241.581.37.818.347.637.942 1.403 1.425 1.827 1.478 1.298 3.417 2.076 5.78 2.312.764.08 2.016.04 2.874-.086 2.027-.296 4.02-1.205 5.223-2.38.526-.514 1.062-1.244 1.348-1.829.122-.248.258-.6.254-.65v-.002c-.026-.026-.879-.119-1.405-.15-.595-.038-.61-.041-.697-.131a.277.277 0 0 1 .133-.47c.105-.022 1.35.09 1.81.163.5.082 1.594.34 2.02.478.566.184.756.166.861-.087q.111-.267-.043-.442c-.076-.079-.168-.116-.56-.228-.26-.072-.722-.184-1.02-.25a17 17 0 0 1-.584-.13h-.002l-.002-.001h-.002v-.002l-.002-.002-.002-.002q-.02-.034.03-.229c.068-.269.157-.788.148-.853v-.004h-.002c-.023-.026-1.066.127-1.54.226-.453.095-1.123.282-1.353.377-.25.106-.572-.045-.572-.265 0-.118.077-.213.23-.295.21-.11 2.171-.477 3.153-.588a40 40 0 0 1 1.943-.153c.1 0 .256-.156.28-.28a.388.388 0 0 0-.375-.452c-.066-.004-.48.01-.916.023l-.795.032.015-.117c.053-.31-.135-1.528-.336-2.182-.092-.31-.321-.942-.357-.992-.026-.036-2.159-.34-3.106-.446a54 54 0 0 0-6.208-.292"
     style="fill:#000000;fill-opacity:1"
     id="path3" />
</svg>
